<?xml version="1.0" encoding="utf-8"?>
<!-- Generator: Adobe Illustrator 16.0.0, SVG Export Plug-In . SVG Version: 6.00 Build 0)  -->
<!DOCTYPE svg PUBLIC "-//W3C//DTD SVG 1.1//EN" "http://www.w3.org/Graphics/SVG/1.1/DTD/svg11.dtd">
<svg version="1.1" id="Layer_1" xmlns="http://www.w3.org/2000/svg" xmlns:xlink="http://www.w3.org/1999/xlink" x="0px" y="0px"
	 width="512px" height="512px" viewBox="0 0 512 512" enable-background="new 0 0 512 512" xml:space="preserve">
<g>
	<path fill-rule="evenodd" clip-rule="evenodd" d="M356.033,14.207c0.312,2.446,0.078,5.128,1.017,7.305
		c15.002,34.809,30.603,69.365,45.145,104.362c14.088,33.908,26.87,68.355,40.711,102.37c8.87,21.794,18.812,43.149,27.918,64.85
		c8.71,20.758,17.159,41.637,25.099,62.695c0.742,1.973-2.295,6.961-4.782,8.273c-8.287,4.383-17.039,7.938-25.764,11.432
		c-23.605,9.45-48.153,17.021-70.677,28.562c-18.53,9.494-38.518,14.443-57.19,23.17c-19.072,8.912-40.219,13.859-58.293,24.293
		c-15.118,8.725-32.009,11.359-47.146,19.34c-15.704,8.283-32.585,14.354-49.063,21.117c-5.613,2.307-11.457,4.326-17.388,5.518
		c-7.952,1.602-12.099-3.402-14.737-10.156c-13.939-35.699-27.55-71.529-41.962-107.032c-13.581-33.461-28.214-66.494-42.013-99.867
		c-10.201-24.674-19.838-49.583-29.665-74.412c-5.313-13.428-10.364-26.961-15.862-40.31c-0.971-2.356-3.568-4.04-5.416-6.035
		c0-3.779,0-7.557,0-11.336c15.663-5.39,31.527-10.264,46.936-16.302c18.689-7.323,35.801-18.373,55.682-23.094
		c4.466-1.061,7.771-6.395,12.242-8.176c12.357-4.926,25.163-8.719,37.582-13.501c18.588-7.157,37.039-14.68,55.472-22.234
		c11.197-4.59,22.169-9.732,33.385-14.275c24.72-10.016,49.575-19.699,74.243-29.84c2.933-1.206,5.037-4.429,7.525-6.715
		C344.697,14.207,350.365,14.207,356.033,14.207z M326.54,61.942c-7.031,2.462-14.276,4.449-21.047,7.49
		c-11.451,5.143-22.325,11.642-33.944,16.324c-17.711,7.136-35.985,12.863-53.774,19.821c-25.518,9.982-50.815,20.531-76.205,30.842
		c-21.785,8.847-43.633,17.545-65.32,26.623c-9.086,3.805-12.363,11.371-9.028,20.761c4.097,11.536,8.736,22.887,13.355,34.232
		c11.359,27.9,22.785,55.775,34.292,83.613c12.837,31.057,25.771,62.07,38.705,93.083c7.133,17.104,14.448,34.131,21.479,51.275
		c2.063,5.031,4.759,6.711,10.155,4.645c8.503-3.258,17.392-5.531,25.828-8.938c12.475-5.035,24.626-10.869,37.045-16.053
		c17.087-7.131,34.319-13.912,51.445-20.955c12.985-5.342,25.799-11.119,38.876-16.219c14.42-5.624,29.055-10.694,43.593-16.015
		c0.292-0.107,0.54-0.328,0.827-0.451c16.623-7.076,32.988-14.871,49.96-20.986c13.028-4.693,17.365-12.277,11.942-25.115
		c-10.016-23.713-19.834-47.51-29.756-71.264c-4.723-11.306-9.624-22.54-14.213-33.898c-9.3-23.015-18.257-46.17-27.692-69.129
		c-10.854-26.414-22.298-52.587-32.973-79.071C337.468,66.052,334.237,62.332,326.54,61.942z"/>
	<path fill-rule="evenodd" clip-rule="evenodd" d="M221.853,185.018c-9.348,5.253-17.416,9.148-24.781,14.092
		c-8.879,5.958-17.172,12.794-25.699,19.273c-8.759,6.656-17.46,13.391-26.256,19.997c-6.121,4.597-12.395,5.307-19.283,1.157
		c-3.987-2.401-8.516-3.949-12.89-5.652c-8.554-3.333-11.525-10.412-11.94-18.643c-0.32-6.349,6.707-11.153,12.857-7.261
		c16.824,10.654,29.183-0.655,42.229-7.264c8.509-4.309,15.635-11.265,23.843-16.275c7.894-4.818,16.442-8.551,24.604-12.945
		c25.091-13.509,50.93-25.866,74.841-41.22c11.092-7.124,22.451-8.112,34.063-10.637c3.295-0.717,7.362-1.206,10.206,0.097
		c4.531,2.078,8.334,5.746,12.444,8.742c-3.262,3.723-5.847,8.754-9.939,10.871c-6.608,3.417-14.094,5.403-21.411,7.142
		c-33.211,7.893-51.771,28.151-62.748,61.124c-12.458,37.422-1.223,69.124,13.629,101.163c5.883,12.689,16.932,19.338,32.395,20.412
		c13.603,0.945,26.616,0.703,39.815-2.129c4.886-1.047,9.967-1.277,14.978-1.602c7.067-0.459,15.368,1.344,15.306,8.611
		c-0.046,5.268-6.198,13.527-11.295,15.121c-13.66,4.277-28.125,6.689-42.438,7.992c-19.688,1.793-38.415-2.691-53.922-15.594
		c-15.542-12.936-24.403-30.32-28.271-49.896c-6.213-31.445-7.443-63.042-0.43-94.641
		C222.455,193.921,221.853,190.501,221.853,185.018z"/>
	<path fill-rule="evenodd" clip-rule="evenodd" d="M299.307,192.814c18.149,0.284,30.933,8.117,42.769,16.606
		c3.994,2.865,5.1,11.113,5.608,17.065c0.44,5.126-10.771,7.379-16.584,3.591c-11.624-7.575-23.394-14.943-34.729-22.928
		c-2.193-1.544-4.395-6.268-3.552-8.202C294.157,195.867,298.051,193.901,299.307,192.814z"/>
	<path fill-rule="evenodd" clip-rule="evenodd" d="M361.813,205.281c-13.369-7.422-26.304-14.062-38.577-21.754
		c-3.568-2.236-5.247-7.485-7.793-11.354c4.206-1.997,8.508-5.857,12.603-5.65c14.083,0.709,26.623,6.164,36.979,16.055
		C370.503,187.809,369.454,194.521,361.813,205.281z"/>
</g>
</svg>
