<?xml version="1.0" encoding="utf-8"?>
<!-- Generator: Adobe Illustrator 16.0.0, SVG Export Plug-In . SVG Version: 6.00 Build 0)  -->
<!DOCTYPE svg PUBLIC "-//W3C//DTD SVG 1.1//EN" "http://www.w3.org/Graphics/SVG/1.1/DTD/svg11.dtd">
<svg version="1.1" id="Layer_1" xmlns="http://www.w3.org/2000/svg" xmlns:xlink="http://www.w3.org/1999/xlink" x="0px" y="0px"
	 width="580.832px" height="213.875px" viewBox="-34.414 149.061 580.832 213.875"
	 enable-background="new -34.414 149.061 580.832 213.875" xml:space="preserve">
<g>
	<path fill="#FFFFFF" d="M229.962,201.779c-1.38,0.463-2.247,0.753-3.319,1.112c0.312,2.563,0.624,5.133,0.937,7.702
		c0.17-0.111,0.341-0.222,0.511-0.333c0.807,1.501,1.582,3.021,2.437,4.494c0.298,0.515,0.855,0.874,1.181,1.378
		c0.94,1.453,2.902,3.452,2.498,4.312c-0.771,1.637-2.844,3.597-4.486,3.7c-3.947,0.25-7.623,1.688-11.937,0.879
		c-7.211-1.353-14.732-0.98-22.104-1.574c-2.246-0.18-4.43-1.144-6.963-1.837c-3.766,3.228-8.425,0.696-12.851,0.615
		c-1.937-0.035-4.058-0.855-5.703-1.921c-0.988-0.64-1.301-2.417-1.726-3.744c-0.081-0.253,1.018-1.195,1.096-1.141
		c1.034,0.726,2.004,1.549,2.943,2.399c0.358,0.325,0.597,0.784,1.986,1.407c0.313-1.607,0.921-3.221,0.884-4.821
		c-0.156-6.818-0.552-13.63-0.765-20.447c-0.136-4.326-0.025-8.66-0.173-12.985c-0.12-3.531-2.733-3.562-5.534-3.288
		c0-2.254,0-4.315,0-6.653c3.911,0.556,7.814,1.403,11.745,1.554c2.228,0.084,4.662-0.63,6.714-1.599
		c3.5-1.65,6.871-1.658,9.85,0.527c3.479,2.555,6.992,1.337,9.871-0.096c6.49-3.231,8.984-3.243,14.543,1.204
		c4.131,3.307,4.258,8.299,5.792,12.699c0.152,0.438-0.696,1.227-1.183,2.021c0.674,0.598,1.372,1.217,2.025,1.797
		C225.871,195.803,224.178,197.663,229.962,201.779z M192.294,217.499c1.234-2.242,3.278-4.326,3.398-6.514
		c0.258-4.685-0.672-9.42-0.759-14.141c-0.088-4.817,0.428-9.647,0.308-14.463c-0.04-1.597-0.913-3.488-2.038-4.609
		c-0.564-0.563-2.842-0.109-3.83,0.601c-1.918,1.38-4.444,3.018-1.512,5.852c0.203,0.197,0.264,0.779,0.128,1.053
		c-1.422,2.877-2.794,5.786-4.395,8.563c-1.07,1.856-1.674,3.202,0.766,4.551c0.75,0.416,1.03,2.124,1.084,3.261
		c0.104,2.257-0.207,4.531-0.15,6.794C185.4,212.655,188.551,214.722,192.294,217.499z M211.705,190.59
		c1.186-1.443,2.328-2.369,2.771-3.557c0.246-0.657-0.442-2.095-1.13-2.566c-1.009-0.692-2.396-0.834-3.621-1.21
		c0.154,0.819,0.533,1.677,0.403,2.448c-0.162,0.963-0.646,1.914-1.164,2.767c-1.271,2.098-1.663,3.908,1.14,5.068
		c0.629,0.259,1.212,0.627,1.574,0.817c-0.813,1.837-2.483,3.831-2.022,4.924c1.169,2.765,0.501,4.257-2.101,5.693
		c2.533-0.156,4.815-0.509,6.865-1.396c0.353-0.153-0.096-2.65-0.546-3.935c-0.207-0.588-1.313-0.861-2.71-1.693
		C215.826,195.446,214.783,192.909,211.705,190.59z"/>
	<path fill="#FFFFFF" d="M-16.334,193.273c1.361-4.088,2.972-8.113,4.016-12.28c1.132-4.521,0.507-9.203,3.638-13.585
		c1.797-2.514,0.641-7.137,0.814-10.81c-0.548-0.252-1.095-0.503-1.642-0.754c3.253-2.308,6.235-5.786,9.832-6.623
		c4.405-1.026,7.228,3.128,8.716,5.559c-0.146,3.035-0.736,5.161-0.243,6.997c1.433,5.333,3.3,10.548,4.995,15.81
		c0.378-0.049,0.754-0.098,1.131-0.146c-0.58,0.724-1.158,1.448-1.875,2.345c3.43,2.75-0.306,10.463,6.839,10.043
		c0,1.597-0.058,2.826,0.011,4.048c0.214,3.855,0.467,7.708,0.725,11.561c0.041,0.618-0.045,1.491,0.313,1.802
		c2.969,2.576,3.738,7.175,8.235,8.452c1.873,0.532,3.535,2.119,5.057,3.489c1.6,1.44,0.827,5.037-1.398,5.999
		c-2.122,0.917-4.483,1.845-6.724,1.808c-6.429-0.106-12.874-0.49-19.253-1.259c-1.507-0.182-2.779-2.302-4.16-3.529
		c0.16-0.272,0.319-0.544,0.479-0.815c-2.018,0.172-4.034,0.344-5.711,0.487c-1.316,1.179-2.351,2.876-3.712,3.198
		c-7.834,1.858-15.792,1.513-23.626,0.087c-3.026-0.551-4.126-3.412-3.946-6.438c0.167-2.798,2.441-2.759,4.406-2.999
		c5.26-0.641,7.544-3.077,8.99-8.688c0.877-3.404,2.538-6.6,3.626-9.96c0.368-1.138,0.058-2.494,0.058-3.75
		C-16.607,193.305-16.471,193.289-16.334,193.273z M1.688,217.511c1.826-1.645,3.521-2.929,4.866-4.511
		c0.494-0.58,0.589-2.311,0.13-2.753c-2.395-2.311-5.252-3.718-8.742-3.698c-2.858,0.017-6.348,3.147-6.476,5.677
		C-5.059,214.022-1.751,215.733,1.688,217.511z M1.496,177.358c-3.812,4.6-5.678,9.535-1.914,15.622
		c0.896-0.504,3.103-1.025,3.596-2.241c0.421-1.042-1.118-2.879-1.708-4.184C7.011,184.05,1.077,180.421,1.496,177.358z"/>
	<path fill="#FFFFFF" d="M249.574,191.948c-0.578-0.343-1.105-0.566-1.527-0.918c-5.618-4.686-6.559-4.899-4.54-13.328
		c1.324-5.53,6.254-9.655,11.045-10.083c2.029-0.181,4.014-0.92,6.004-1.461c9.071-2.465,16.967,0.32,24.115,5.7
		c1.521,1.144,2.262,3.323,3.36,5.026c1.046,1.622,2.091,3.245,3.274,5.081c-2.842,2.533-0.992,6.842-1.691,10.616
		c-0.324,1.751-0.293,3.571-0.383,5.361c-0.127,2.45,0.055,4.815-0.799,7.326c-0.709,2.091,2.824,4.268,5.446,3.266
		c2.468-0.943,4.295-0.612,5.333,1.622c0.992,2.138,3.561,4.373,0.587,6.943c-0.268,0.231-0.491,0.605-0.571,0.951
		c-1.313,5.813-6.451,6.239-10.832,7.39c-2.584,0.678-5.324,0.654-7.408-2.072c-1.799-2.354-4.428-2.359-7.127-1.16
		c-2.392,1.063-4.813,2.306-7.35,2.745c-4.922,0.854-9.81,1.884-14.961,0.413c-4.902-1.4-10.974-7.13-11.811-12.309
		c-0.294-1.815-1.054-3.728-0.737-5.436c1.143-6.182,2.939-12.097,9.72-14.615C249.006,192.902,249.168,192.469,249.574,191.948z
		 M251.807,208.359c2.578,2.225,4.646,5.93,10.31,4.354c3.328-0.926,6.328-0.29,9.713-3.237c5.751-5.008,6.654-5.059,2.891-11.178
		C267.107,201.656,257.327,199.466,251.807,208.359z M255.481,190.255c3.382-0.688,6.298-1.207,9.177-1.888
		c3.492-0.826,6.977-1.711,10.412-2.74c1.025-0.307,2.43-1.036,2.646-1.845c0.197-0.732-0.759-2.234-1.596-2.706
		c-3.176-1.791-6.465-3.406-9.799-4.889c-4.348-1.935-8.775-0.217-9.886,4.103C255.706,183.138,255.833,186.207,255.481,190.255z"/>
	<path fill="#FFFFFF" d="M28.597,277.166c-1.222,0.9-2.185,1.611-3.377,2.491c1.97,1.812,2.544,3.667,0.45,5.612
		c-0.246,0.229-0.332,0.654-0.438,1.006c-1.295,4.326-2.265,8.781-3.953,12.947c-1.689,4.17-5.507,6.568-9.647,7.601
		c-4.363,1.087-8.979,1.13-13.455,1.819c-0.875,0.135-2.183,1.043-2.321,1.777c-0.675,3.559-0.869,7.209-1.581,10.758
		c-0.188,0.939-1.611,1.633-1.816,1.825c1.104,1.991,2.487,3.685,3.021,5.613c1.026,3.704,4.026,3.646,6.531,3.317
		c2.833-0.369,5.03-0.242,5.854,2.699c0.648,2.317-1.997,5.032-5.146,5.135c-3.743,0.119-7.507-0.449-11.252-0.35
		c-4.697,0.126-9.382,0.854-14.075,0.893c-3.197,0.023-6.428-0.543-9.592-1.125c-2.548-0.47-2.428-2.652-1.199-3.935
		c1.283-1.338,3.295-2.177,5.14-2.728c2.93-0.875,6.073-1.08,8.938-2.1c0.982-0.35,1.948-2.273,1.987-3.508
		c0.284-8.886,0.543-17.783,0.377-26.668c-0.126-6.802-1.453-13.615-1.172-20.379c0.198-4.801-1.142-6.846-5.76-7.324
		c-3.421-0.354-6.797-1.132-10.525-1.777c0.64-2.176,0.886-5.174,5.219-4.463c0.719,0.118,1.567-1.021,2.445-1.313
		c1.601-0.532,3.277-1.255,4.905-1.216c9.159,0.226,18.313,0.929,27.467,0.898c4.825-0.016,8.823,1.584,12.789,3.868
		c2.133,1.229,4.507,2.136,6.405,3.646C26.282,273.357,27.18,275.24,28.597,277.166z M18.231,292.305
		c0.048-2.111,3.547-4.186,0.734-8.527c-2.454-3.789-4.982-7.438-8.732-8.771c-3.325-1.181-7.086-6.058-11.286-1.161
		c-0.088,0.104-0.472-0.013-0.706-0.074c-2.744-0.711-2.799,0.438-2.282,2.738c0.336,1.499-0.034,3.033,2.006,3.49
		c0.218,0.048,0.467,0.918,0.356,1.311c-0.868,3.08-1.763,6.154-2.76,9.195c-1.367,4.174,1.566,9.383,5.177,8.977
		c3.058-0.344,6.115-0.737,9.136-1.307c0.991-0.188,1.928-0.91,2.783-1.535C14.37,295.393,16.01,294.043,18.231,292.305z"/>
	<path fill="#FFFFFF" d="M515.634,218.567c-1.797,0.642-3.461,0.786-3.633,1.37c-1.334,4.536-5.022,4.646-8.635,4.872
		c-4.662,0.292-9.331,0.457-13.998,0.678c-2.528,0.119-5.224,0.31-6.527-2.416c-0.715-1.491-1.463-3.641-0.887-4.891
		c0.603-1.306,2.697-2.082,4.288-2.719c0.971-0.389,2.467,0.321,3.283-0.182c1.115-0.689,2.7-2.233,2.533-3.114
		c-0.866-4.56-0.409-8.732,0.687-13.314c0.963-4.027-0.467-8.713-1.288-13.021c-0.203-1.07-2.164-1.783-3.276-2.708
		c-1.182-0.984-2.856-1.807-3.377-3.082c-2.03-4.997-1.725-5.011,3.653-5.813c4.295-0.641,7.919-0.473,11.292,2.849
		c2.087,2.055,4.506,2.006,7.016-0.713c4.995-5.409,12.98-5.964,19.415-2.302c1.389,0.79,3.316,0.65,5.003,0.891
		c3.567,0.51,3.834,1.265,1.837,4.188c-0.467,0.682-0.514,2.262-0.038,2.875c2.447,3.166,0.56,6.479,0.577,9.701
		c0.012,2.026-0.511,3.752,1.365,5.716c1.208,1.265,0.192,4.419,0.813,6.541c0.747,2.564,1.862,5.149,3.396,7.318
		c1.311,1.856,3.495,3.074,5.183,4.689c3.062,2.929,2.82,5.909-0.987,7.785c-2.11,1.04-4.684,1.323-7.084,1.546
		c-3.599,0.334-7.228,0.422-10.844,0.404c-2.138-0.01-4.271-0.561-6.412-0.63C515.323,224.966,514.572,222.92,515.634,218.567z
		 M501.667,211.351c7.438,4.765,11.014,5.595,16.575,3.905c3.802-1.155,4.986-3.337,4.53-7.462
		c-0.314-2.839-0.229-5.726-0.255-8.592c-0.043-4.69,0.064-9.385-0.141-14.066c-0.031-0.717-1.604-2.09-2.103-1.941
		c-2.537,0.758-5.204,1.554-7.352,3.026c-2.644,1.815-4.603,4.626-7.244,6.444c-4.561,3.137-5.41,5.664-3.373,9.372
		C502.041,205.913,501.852,208.661,501.667,211.351z"/>
	<path fill="#FFFFFF" d="M90.73,180.206c1.721,3.079,2.097,6.689,1.369,10.593c-0.418,2.247-1.085,4.526,1.325,6.796
		c1.199,1.131,0.585,4.359,0.512,6.63c-0.117,3.634,2.313,5.435,4.676,7.533c2.148,1.907,4.21,4.081,5.699,6.512
		c1.548,2.525-0.735,4.459-2.543,5.407c-2.076,1.089-4.655,1.412-7.057,1.641c-3.596,0.342-7.229,0.415-10.844,0.398
		c-2.139-0.01-4.271-0.536-6.415-0.616c-3.562-0.134-4.622-1.938-3.287-6.648c-1.963,0.988-3.109,1.373-4.021,2.065
		c-1.606,1.219-2.892,3.383-4.633,3.795c-3.778,0.896-7.755,1.022-11.661,1.297c-2.223,0.156-4.469-0.065-6.703-0.027
		c-2.617,0.046-4.811-0.493-6.453-2.874c-2.107-3.06-0.738-6.765,2.958-7.247c1.353-0.178,2.745-0.032,4.118-0.076
		c2.226-0.072,3.206-1.207,2.724-3.414c-0.93-4.249-0.589-8.23,0.426-12.594c0.972-4.174-0.317-8.95-1.05-13.39
		c-0.181-1.09-2.034-1.942-3.182-2.82c-1.061-0.812-2.668-1.273-3.207-2.316c-0.818-1.585-1.343-3.598-1.101-5.303
		c0.085-0.598,2.802-0.813,4.312-1.218c4.395-1.179,8.178-0.468,11.625,2.835c2.119,2.029,4.349,1.839,6.704-0.711
		c4.995-5.408,13.182-6.113,19.399-2.453c1.276,0.751,3.103,0.505,4.599,0.967c1.307,0.402,2.506,1.155,3.753,1.753
		C92.145,177.791,91.517,178.862,90.73,180.206z M60.562,209.478c-0.264,0.204-0.527,0.409-0.791,0.614
		c0.723,0.82,1.292,1.933,2.196,2.405c2.448,1.278,5.129,2.119,7.551,3.438c3.622,1.975,6.617-0.44,9.325-1.734
		c1.751-0.836,3.732-3.318,2.314-6.723c-0.979-2.351-0.307-5.399-0.321-8.137c-0.023-4.693,0.086-9.392-0.103-14.078
		c-0.029-0.749-1.521-2.179-1.988-2.048c-2.524,0.709-5.206,1.419-7.329,2.867c-3.049,2.079-5.836,4.63-8.396,7.304
		c-1.417,1.479-3.45,4.188-2.941,5.357C61.691,202.458,59.008,206.007,60.562,209.478z"/>
	<path fill="#FFFFFF" d="M301.609,319.628c1.029-0.291,2.127-0.526,3.173-0.911c5.151-1.893,8.079-0.707,10.299,4.322
		c0.277,0.626,0.469,1.799,0.136,2.105c-2.76,2.535-2.152,7.256-6.382,8.978c-4.644,1.894-8.778,5.317-13.533,6.581
		c-8.013,2.128-15.956,1.881-23.491-3.098c-5.686-3.756-6.334-9.994-9.233-15.101c-1.435-2.526-2.862-5.496-2.888-8.278
		c-0.037-4.117,0.31-8.672,2.069-12.27c2.431-4.968,5.708-9.895,9.753-13.605c5.372-4.931,12.592-7.59,19.813-6.174
		c6.859,1.348,14.342,3.309,18.214,10.067c1.688,2.944,4.331,5.478,4.665,9.419c0.296,3.518-1.938,5.456-3.676,7.188
		c-4.509,4.486-9.307,3.957-13.567-0.707c-2.669-2.922-2.506-3.381-1.981-7.314c0.196-1.479-0.846-3.907-2.08-4.656
		c-5.404-3.277-9.98-2.111-13.91,3.119c-3.088,4.105-5.795,8.373-5.604,13.855c0.064,1.862-0.583,3.601-0.485,5.639
		c0.207,4.333,4.36,3.966,5.529,6.587c3.68-1.5,4.225,2.008,5.932,3.683c0.234,0.231,0.697,0.336,1.049,0.322
		c1.73-0.068,3.63,0.223,5.156-0.391c3.519-1.413,8.328-0.637,10-5.422C300.999,322.314,301.252,320.998,301.609,319.628z"/>
	<path fill="#FFFFFF" d="M75.667,301.072c1.048,0.063,2.096,0.128,3.145,0.191c0.092-0.296,0.185-0.593,0.276-0.889
		c-3.005-0.65-6.011-1.303-8.938-1.936c-2.199,2.517-5.001,4.758-6.45,7.672c-1.236,2.488-0.999,5.742-1.257,8.67
		c-0.123,1.416,0.115,2.863,0.208,4.644c1.144-0.246,2.222-0.479,3.33-0.719c0.31,2.473,0.603,4.817,0.852,6.808
		c2.68,0.176,5.076-0.391,6.211,0.557c2.425,2.021,4.548,4.64,6.023,7.422c0.457,0.861-1.267,4.057-2.519,4.435
		c-4.243,1.281-8.288,3.046-13.234,2.188c-5.549-0.963-11.427,0.169-17.119-0.229c-3.795-0.266-7.631-1.292-11.227-2.589
		c-2.263-0.816-3.005-2.884-0.741-4.952c1.946-1.778,3.804-3.022,6.829-2.993c2.917,0.028,5.937-1.264,8.726-2.42
		c0.883-0.367,1.607-2.149,1.652-3.314c0.169-4.286-0.739-8.633,1.432-12.748c0.436-0.824,0.261-2.404-0.269-3.227
		c-1.998-3.096-1.108-6.054-0.129-9.14c1.041-3.284-1.688-5.829-5.085-5.571c-3.387,0.256-6.914,0.047-10.21-0.705
		c-1.032-0.236-2.075-2.895-2.089-4.453c-0.016-1.722,0.058-4.207,2.991-4.316c3.734-0.141,7.493-0.721,11.19-0.438
		c3.359,0.258,6.642,1.459,9.974,2.168c3.32,0.707,6.487,1.615,9.994-0.086c7.344-3.563,14.92-4.608,21.95,0.765
		c2.937,2.245,5.328,5.157,4.181,9.429c-0.092,0.344-0.071,0.732-0.036,1.094c0.81,8.285-2.411,11.521-10.64,10.684
		c-0.37-0.037-0.875,0.074-1.09-0.129c-1.246-1.164-2.248-2.715-3.679-3.519c-1.229-0.69-2.924-0.554-4.411-0.782
		C75.562,302.117,75.615,301.596,75.667,301.072z"/>
	<path fill="#FFFFFF" d="M375.384,319.761c-0.416,2.22-0.816,4.441-1.252,6.656c-0.511,2.606-1.005,5.22-1.624,7.801
		c-0.105,0.441-0.749,0.929-1.24,1.077c-4.765,1.438-9.547,2.823-14.33,4.195c-4.714,1.353-13.982-1.852-16.092-6.217
		c-1.567-3.25-2.479-7.013-2.794-10.623c-0.448-5.164-0.155-10.398-0.036-15.602c0.063-2.751,0.855-5.539,0.572-8.23
		c-0.509-4.836-2.089-5.742-6.71-5.404c-3.103,0.227-6.266,0.238-9.343-0.139c-1.189-0.146-3.188-1.719-3.117-2.481
		c0.154-1.675,1.009-4.104,2.278-4.681c2.514-1.144,5.482-1.447,8.301-1.725c6.825-0.674,9.721-3.744,8.378-10.639
		c-0.642-3.29,0.769-5.273,2.246-7.357c1.129-1.594,3.206-2.168,4.832-0.354c3.446,3.847,3.979,8.829,5.438,13.69
		c-1.24,0.114-2.075,0.19-3.435,0.316c2.544,1.449,4.573,3.165,6.889,3.745c1.795,0.45,3.983-0.371,5.929-0.89
		c2.607-0.695,11.306,4.136,11.974,6.939c0.151,0.637-0.212,1.719-0.718,2.131c-2.927,2.387-6.037,3.309-10.043,2.479
		c-2.796-0.578-5.944,0.498-8.923,0.919c-0.391,0.054-1,0.584-1.019,0.92c-0.366,6.827-2.585,13.631-0.366,20.493
		c0.791,2.447,3.616,3.652,5.738,2.271c2.178-1.416,4.938-2.486,4.451-6.091c-0.086-0.636,1.391-2.015,2.28-2.146
		c2.368-0.352,4.622-0.121,6.092,2.471c1.394,2.458,3.268,4.645,4.931,6.949C374.909,320.08,375.147,319.921,375.384,319.761z"/>
	<path fill="#FFFFFF" d="M336.502,165.007c-2.025,0.115-2.874,0.164-3.704,0.211c-0.643,2.593,9.813,5.189,12.183,3.104
		c0.168-0.148,0.422-0.199,0.05-0.032c2.407,0.517,4.618,0.433,6.09,1.435c2.309,1.57,4.146,3.848,6.079,5.924
		c0.133,0.145-0.483,1.25-0.963,1.658c-3.06,2.604-6.335,3.178-10.425,2.256c-2.629-0.593-5.685,0.649-8.531,1.161
		c-0.345,0.062-0.826,0.691-0.839,1.071c-0.219,6.713-0.639,13.438-0.407,20.138c0.09,2.62,3.394,3.645,5.771,2.257
		c2.312-1.349,4.927-2.455,4.438-6.038c-0.084-0.618,1.192-1.959,1.958-2.058c2.49-0.32,4.879-0.259,6.417,2.545
		c1.357,2.478,3.285,4.645,5.443,7.614c-0.797,3.904-1.826,8.956-2.727,13.363c-5.504,1.828-10.541,3.65-15.668,5.167
		c-7.201,2.13-15.868-3.492-16.96-10.635c-0.645-4.22-2.128-8.354-2.395-12.579c-0.234-3.704,0.328-7.573,1.217-11.204
		c1.103-4.513-0.158-8.223-2.648-11.747c-0.317-0.45-1.284-0.653-1.936-0.625c-3.812,0.164-7.622,0.636-11.422,0.538
		c-1.156-0.03-3.021-1.374-3.248-2.404c-0.424-1.931-0.565-4.397,2.449-4.982c4.238-0.822,8.534-1.465,12.66-2.678
		c1.333-0.391,2.867-2.2,3.156-3.6c0.57-2.755-0.198-5.836,0.594-8.48c0.658-2.203,2.375-4.622,4.317-5.769
		c2.314-1.367,2.863,1.702,4.213,2.981C334.955,156.717,333.379,161.289,336.502,165.007z"/>
	<path fill="#FFFFFF" d="M447.534,168.937c3.292,0,6.647-0.391,9.854,0.131c2.297,0.375,4.684,1.617,6.515,3.104
		c2.839,2.304,5.443,4.979,7.753,7.818c1.599,1.969,2.832,4.37,3.704,6.77c2.229,6.129,0.977,12.227-0.713,18.264
		c-0.162,0.577-0.396,1.348-0.157,1.792c2.279,4.243-0.557,7.392-2.825,9.981c-2.284,2.607-4.461,5.688-8.85,6.107
		c-4.617,0.439-9.063,2.484-13.681,3.166c-5.368,0.792-10.205-1.529-14.501-4.441c-8.214-5.566-7.409-14.619-8.329-22.964
		c-0.226-2.043-0.678-4.062-1.018-6.092c-0.079-0.482-0.29-1.018-0.165-1.447c0.964-3.299,1.455-6.893,3.144-9.78
		c2.013-3.441,4.611-6.914,7.804-9.185c3.14-2.232,7.339-2.977,11.072-4.374C447.272,168.17,447.403,168.553,447.534,168.937z
		 M453.662,180.685c-0.246,3.542-2.256,3.139-4.552,2.999c-2.221-0.135-4.728-0.034-6.688,0.872
		c-5.882,2.722-9.593,11.729-7.771,17.941c0.1,0.336,0.251,0.795,0.513,0.926c2.872,1.428,3.291,6.543,7.968,5.308
		c0.334-0.089,0.82,0.487,1.261,0.704c2.405,1.187,4.735,2.606,7.26,3.443c1.61,0.534,3.816,0.822,5.225,0.133
		c4.08-1.999,4.834-6.289,5.804-10.236c0.157-0.639-0.747-1.479-0.945-2.279c-0.21-0.843-0.511-2.335-0.171-2.537
		c2.88-1.716,1.291-3.353,0.222-5.18c-0.426-0.727-0.245-1.781-0.499-2.64c-0.521-1.755-0.746-3.81-1.835-5.132
		C458.113,183.383,456.02,182.381,453.662,180.685z"/>
	<path fill="#FFFFFF" d="M153.316,306.311c-1.062,5.342-1.892,9.484-2.7,13.633c-0.094,0.477-0.261,1.084-0.061,1.445
		c2.409,4.348-0.49,7.516-2.852,10.248c-2.303,2.668-4.579,5.697-8.954,6.018c-3.239,0.238-6.336,2.006-9.573,2.755
		c-8.466,1.96-15.692-1.216-21.654-6.707c-2.324-2.142-3.363-6.091-4.116-9.414c-0.835-3.685-0.5-7.615-0.989-11.397
		c-0.591-4.572-1.157-9.097,0.822-13.468c0.85-1.876,1.665-3.832,2.883-5.461c1.969-2.634,3.994-5.337,6.469-7.456
		c4.826-4.13,10.803-2.54,16.455-2.889c4.194-0.258,7.556,1.582,10.729,3.318c3.113,1.7,5.924,4.59,7.893,7.597
		C150.172,298.357,151.698,302.827,153.316,306.311z M129.748,295.311c-0.054,4.116-2.398,3.139-4.692,3.058
		c-2.234-0.08-4.726,0.093-6.702,1.016c-5.724,2.675-9.433,11.817-7.598,17.833c0.103,0.338,0.266,0.799,0.531,0.922
		c2.938,1.356,3.269,6.627,8.001,5.342c0.332-0.09,0.825,0.485,1.266,0.707c2.298,1.146,4.508,2.592,6.933,3.332
		c2.618,0.797,5.714,1.436,7.572-1.444c1.58-2.449,3.551-5.216,3.644-7.899c0.094-2.732,0.121-5.628-0.03-8.203
		c-0.143-2.418-0.729-5.423-1.404-8.101c-0.168-0.667-0.619-1.388-1.154-1.813C134.23,298.551,132.254,297.162,129.748,295.311z"/>
	<path fill="#FFFFFF" d="M176.012,343.338c1.247,0.29,2.29,0.532,3.333,0.775c0.053,0.279,0.104,0.561,0.157,0.841
		c-0.982,0.278-2.045,0.407-2.931,0.873c-1.502,0.789-2.893,1.791-4.329,2.704c0.721,0.822,1.299,2.096,2.19,2.379
		c2.12,0.672,4.71,1.193,5.872-1.411c1.2-2.688,1.47-5.801,2.718-8.46c3.682-7.837,2.096-16.186,2.588-24.303
		c0.326-5.373-0.052-10.832-0.658-16.19c-0.174-1.547-2.026-3.837-3.457-4.138c-4.406-0.926-8.972-1.227-13.491-1.43
		c-2.721-0.123-4.381-0.91-4.227-3.844c0.145-2.713,1.607-4.629,4.346-4.681c5.678-0.104,11.367,0.009,17.043,0.271
		c3.722,0.172,7.094,0.928,9.509,4.574c2.106,3.182,1.069,6.352,1.063,9.458c-0.011,5.425-1.978,11.165-0.756,16.198
		c1.782,7.347-1.617,14.411,0.205,21.309c0.87,3.295,0.824,6.102,0.07,9.151c-0.713,2.878-1.456,5.749-2.256,8.604
		c-0.111,0.4-0.557,0.84-0.955,1.012c-4.269,1.837-8.436,4.048-12.87,5.326c-7.112,2.052-14.396-1.508-17.925-8.092
		c-1.225-2.285-2.52-4.533-3.716-6.834c-3.026-5.824,2.833-15.391,9.947-14.443c4.309,0.572,7.925,3.923,8.112,8.287
		C175.624,341.895,175.837,342.5,176.012,343.338z"/>
	<path fill="#FFFFFF" d="M229.23,280.018c4.206,1.246,9.426,1.553,13.024,4.127c6.53,4.668,10.797,11.398,10.949,19.946
		c0.092,5.138-5.738,9.136-10.32,7.163c-0.42-0.181-0.986-0.438-1.342-0.298c-5.68,2.243-11.617-0.252-17.393,1.022
		c-3.357,0.74-6.924,0.502-10.348,1.018c-0.819,0.123-2.207,1.718-2.049,2.266c1.454,5.028,1.563,10.606,7.875,13.245
		c2.439,1.021,4.913,2.003,7.382,3.021c3.528,1.453,5.923,0.109,8.444-1.76c3.939-2.92,7.811-5.937,11.799-8.787
		c0.789-0.564,1.978-0.567,2.982-0.83c0.216,0.908,0.703,1.848,0.605,2.72c-0.757,6.688-3.118,12.155-10.507,13.972
		c-3.289,0.809-6.402,2.463-9.715,3.008c-3.336,0.549-6.622-0.17-9.315-2.783c-1.287-1.25-3.086-2.584-4.747-2.717
		c-4.236-0.344-6.149-3.184-8.722-5.949c-4.537-4.879-5.868-10.438-5.691-16.711c0.01-0.373-0.212-0.951-0.043-1.088
		c3.581-2.938,0.977-6.498,1.037-9.783c0.107-5.791,6.831-15.099,12.291-16.985c2.153-0.744,4.335-1.418,6.531-2.024
		C224.184,281.189,226.442,280.695,229.23,280.018z M218.262,294.919c-3.496-0.185-5.857,0.438-6.664,3.871
		c-0.519,2.206-1.646,4.271-2.829,7.214c5.15,0,10.118,0.579,14.891-0.143c6.45-0.973,12.751-2.943,19.952-4.69
		c-1.174-2.205-1.779-3.479-2.511-4.674c-0.609-0.995-1.644-1.8-2.019-2.854c-2.308-6.486-10.86-8.744-15.898-4.154
		c-0.491,0.447-1.269,0.879-1.885,0.841C218.18,290.134,217.182,291.545,218.262,294.919z"/>
	<path fill="#FFFFFF" d="M153.739,215.284c2.096-3.658,5.101,0.064,6.772,1.066c1.494,0.896,2.383,4.685,1.803,6.694
		c-0.778,2.69-3.358,4.19-6.825,3.962c-4.565-0.3-9.208,0.509-13.769,0.178c-9.513-0.69-18.991-1.827-28.486-2.755
		c-2.91-0.284-3.641-2.481-2.91-4.495c0.533-1.469,2.442-3.043,4.012-3.414c4.013-0.952,8.227-1.049,12.255-1.954
		c1.139-0.257,2.665-2.078,2.74-3.263c0.553-8.78,0.89-17.58,1.06-26.377c0.061-3.147-2.166-4.828-5.319-4.79
		c-2.713,0.031-5.445,0.135-8.139-0.121c-3.219-0.306-6.277-3.231-5.957-5.329c0.278-1.825,4.74-3.995,7.585-3.552
		c2.427,0.381,4.809,1.064,7.239,1.398c1.033,0.143,2.28,0.004,3.194-0.467c3.61-1.856,8.613-1.367,11.358,1.654
		c1.146,1.26,2.538,3.292,2.264,4.66c-0.837,4.175,3.244,8.236,0.081,12.306c3.287,4.726-0.17,9.618,0.388,14.388
		c0.271,2.311,0.727,4.856,1.974,6.705c0.802,1.185,3.211,1.262,4.878,1.892C151.132,214.122,152.292,214.667,153.739,215.284z"/>
	<path fill="#FFFFFF" d="M410.241,215.144c1.968-3.57,4.967,0.158,6.43,1.136c1.553,1.038,2.536,4.693,1.972,6.7
		c-0.749,2.658-3.296,4.263-6.79,4.032c-4.566-0.302-9.21,0.504-13.772,0.175c-9.521-0.688-19.012-1.81-28.514-2.751
		c-2.878-0.285-3.687-2.446-2.904-4.517c0.551-1.465,2.443-3.029,4.006-3.392c4.134-0.958,8.462-1.071,12.6-2.014
		c1.065-0.243,2.375-2.268,2.449-3.54c0.512-8.692,0.92-17.402,0.919-26.107c0-2.871-1.842-5.001-5.373-4.76
		c-2.579,0.176-5.2,0.188-7.771-0.061c-3.438-0.331-6.588-3.271-6.189-5.43c0.339-1.824,4.847-3.945,7.642-3.486
		c2.306,0.377,4.572,1,6.884,1.338c1.058,0.155,2.319,0.193,3.247-0.236c4.732-2.194,9.59-1.312,12.789,2.539
		c0.477,0.573,1.181,1.204,1.225,1.846c0.269,3.952,0.315,7.919,0.563,11.874c0.138,2.203,0.668,4.387,0.749,6.589
		c0.07,1.958-0.408,3.937-0.332,5.895c0.124,3.189,0.487,6.371,0.776,9.554c0.299,3.287,3.067,2.6,5.086,3.157
		C407.196,214.036,408.425,214.523,410.241,215.144z"/>
	<path fill="#FFFFFF" d="M139.946,167.726c-1.758,0.126-4.72,0.293-7.672,0.561c-3.622,0.328-5.455-2.357-6.108-4.885
		c-0.679-2.627-0.132-5.766,0.567-8.506c0.884-3.461,4.563-3.925,7.236-4.497c4.902-1.048,6.516,4.048,9.408,6.548
		c1.036,0.895,0.543,3.613,0.625,5.505c0.015,0.346-0.572,0.708-0.859,1.079C142.245,164.698,141.357,165.873,139.946,167.726z"/>
	<path fill="#FFFFFF" d="M396.073,167.667c-1.84,0.119-4.932,0.246-8.006,0.536c-3.433,0.321-4.909-2.413-5.484-4.606
		c-0.702-2.674-0.427-5.879,0.342-8.596c0.91-3.217,4.457-3.967,7.185-4.592c5.005-1.149,6.587,3.989,9.474,6.482
		c1.076,0.93,0.475,3.83,0.565,5.835c0.012,0.256-0.413,0.531-0.636,0.799C398.557,164.675,397.601,165.828,396.073,167.667z"/>
	<path fill="#FFFFFF" d="M186.631,282.213c-4.188-0.081-8.607-4.24-8.373-7.882c0.255-3.949,4.103-7.272,8.293-7.167
		c4.881,0.125,8.676,3.607,8.362,7.676C194.591,279.016,190.906,282.296,186.631,282.213z"/>
</g>
</svg>
