<?xml version="1.0" encoding="utf-8"?>
<!-- Generator: Adobe Illustrator 16.0.0, SVG Export Plug-In . SVG Version: 6.00 Build 0)  -->
<!DOCTYPE svg PUBLIC "-//W3C//DTD SVG 1.1//EN" "http://www.w3.org/Graphics/SVG/1.1/DTD/svg11.dtd">
<svg version="1.1" id="Layer_1" xmlns="http://www.w3.org/2000/svg" xmlns:xlink="http://www.w3.org/1999/xlink" x="0px" y="0px"
	 width="723.365px" height="436.869px" viewBox="-105.682 37.565 723.365 436.869"
	 enable-background="new -105.682 37.565 723.365 436.869" xml:space="preserve">
<g>
	<path fill="#FFFFFF" d="M-105.682,125.045c9.395-3.379,18.154-6.497,26.893-9.679c14.5-5.28,28.866-10.964,43.511-15.806
		c15.701-5.191,31.647-6.975,47.386,0.284c11.973,5.522,21.278,14.3,29.361,24.471c15.731,19.796,26.945,42.221,37.324,65.078
		C98.989,233.87,115,279.809,126.057,327.416c4.124,17.76,7.465,35.686,7.646,53.99c0.168,16.825-1.961,33.167-12.529,47.193
		c-7.377,9.793-17.488,16.204-28.508,20.6c-20.211,8.058-40.816,15.126-61.264,22.589c-2.31,0.843-4.661,1.572-7.871,2.646
		c3.017-2.872,5.271-5.136,7.658-7.253c1.857-1.647,2.037-3.323,1.213-5.656C13.907,409.134-4.51,356.715-22.952,304.305
		c-20.631-58.637-41.316-117.255-61.804-175.941c-1.339-3.835-2.937-5.035-6.884-4.39
		C-96.008,124.689-100.494,124.685-105.682,125.045z M81.633,447.752c4.748-2.02,8.961-3.582,12.967-5.567
		c6.279-3.112,9-8.212,7.6-15.1c-1.385-6.813-3.014-13.641-5.291-20.199c-14.747-42.467-29.671-84.87-44.594-127.274
		c-16.415-46.644-32.666-93.344-49.5-139.834c-4.177-11.535-10.324-22.356-15.578-33.5c-1.375-2.919-3.868-3.972-6.926-4.166
		c-6.678-0.421-12.545,2.243-18.757,4.41C1.613,220.359,41.538,333.813,81.633,447.752z"/>
	<path fill="#FFFFFF" d="M357.936,260.259c-0.621,8.185-1.26,16.25-1.847,24.319c-1.704,23.412-3.396,46.824-5.074,70.238
		c-0.384,5.355-0.622,10.724-1.058,16.074c-0.222,2.729,0.928,3.955,3.573,4.055c3.48,0.131,6.96,0.311,10.587,0.475
		c0,1.583,0,2.885,0,4.596c-21.988-1.256-43.738-2.496-65.621-3.744c0-1.543,0-2.746,0-4.047c3.586,0,7.045-0.181,10.475,0.061
		c2.422,0.17,3.359-0.598,3.515-3.003c0.729-11.341,1.549-22.673,2.363-34.007c1.392-19.305,2.813-38.605,4.204-57.909
		c1.355-18.806,2.685-37.614,4.039-56.42c1.382-19.18,2.789-38.357,4.174-57.536c1.367-18.931,2.726-37.861,4.07-56.793
		c0.078-1.103,0.01-2.216,0.01-3.748c-4.396-0.374-8.689-0.739-13.237-1.126c0-1.36,0-2.634,0-4.208c1.073,0,2.038-0.062,2.991,0.01
		c17.3,1.285,34.661,2.033,51.875,4.054c14.632,1.718,28.534,6.203,39.261,17.26c8.383,8.642,11.895,19.578,13.398,31.086
		c3.364,25.709,1.28,51.05-6.628,75.802c-2.912,9.119-7.156,17.539-14.348,24.186c-7.871,7.275-17.516,9.799-27.83,10.276
		C370.732,260.489,364.613,260.259,357.936,260.259z M369.114,104.915c-3.661,50.732-7.247,100.419-10.829,150.065
		c1.795,0.253,3.027,0.445,4.266,0.6c11.164,1.393,18.504-4.179,19.583-15.395c1.063-11.052,1.634-22.15,2.446-33.227
		c1.396-19.041,2.846-38.077,4.207-57.121c0.686-9.582,1.476-19.167,1.74-28.764c0.146-5.365-1.988-10.355-7.19-12.545
		C379.072,106.732,374.287,106.172,369.114,104.915z"/>
	<path fill="#FFFFFF" d="M204.232,296.275c13.545-0.834,26.717-1.646,40.299-2.481c0.429,5.206,0.584,10.052,1.283,14.817
		c0.864,5.898,1.762,11.854,3.424,17.557c1.629,5.594,11.364,8.191,16.077,4.66c0.779-0.585,1.438-1.855,1.473-2.833
		c0.422-11.666-0.365-23.196-4.744-34.193c-1.966-4.938-5.373-8.677-10.115-11.112c-8.756-4.5-17.604-8.822-26.293-13.448
		c-18.115-9.646-27.262-25.372-29.889-45.238c-1.703-12.881-2.783-25.779-0.27-38.744c3.156-16.275,12.608-27.308,27.971-32.75
		c16.152-5.721,32.121-5.029,47.098,4.262c8.925,5.537,14.107,13.899,17.434,23.564c3.775,10.972,4.201,22.433,4.939,34.315
		c-13.496,0.756-26.773,1.5-40.137,2.249c-0.814-6.998-1.389-13.686-2.419-20.302c-1.032-6.632-8.015-9.611-13.587-5.766
		c-1.242,0.857-2.121,3.24-2.033,4.858c0.494,9.068,1.162,18.137,2.128,27.167c0.506,4.734,3.265,8.273,7.583,10.475
		c8.77,4.469,17.636,8.763,26.285,13.455c20.296,11.01,31.029,28.729,34.253,51.069c1.489,10.322,2.636,20.9,2.103,31.27
		c-1.289,25.066-16.216,39.508-40.732,42.954c-9.995,1.405-19.634,0.06-28.928-3.782c-11.507-4.756-19.555-13.088-24.682-24.314
		c-5.812-12.726-7.072-26.395-8.108-40.097C204.465,301.537,204.385,299.182,204.232,296.275z"/>
	<path fill="#FFFFFF" d="M617.395,388.617c-23.739-2.256-47.479-4.51-71.221-6.764c-0.002-0.515-0.006-1.026-0.008-1.539
		c2.818-0.494,5.621-1.108,8.458-1.449c3.249-0.391,5.079-1.475,5.051-5.323c-0.155-21.349-0.075-42.696-0.075-64.653
		c-14.143-1.742-28.66-3.529-43.411-5.345c-3.437,14.354-7.359,28.159-9.812,42.222c-1.022,5.873,0.52,12.426,1.938,18.424
		c1.297,5.485,5.675,8.925,10.975,10.938c1.079,0.41,2.146,0.854,3.219,1.281c-0.071,0.324-0.145,0.65-0.217,0.976
		c-14.137-1.503-28.275-3.008-43.34-4.61c2.529-0.854,4.165-1.49,5.848-1.963c10.998-3.088,14.98-12.344,17.257-21.758
		c20.652-85.375,40.928-170.843,61.31-256.284c3.956-16.588,7.889-33.182,11.856-49.767c1.312-5.473,1.625-5.734,7.27-5.291
		c5.224,0.412,10.428,1.085,15.654,1.464c2.115,0.154,2.854,1.157,2.843,3.073c-0.008,1.124,0.005,2.249,0.005,3.373
		c0.001,109.943,0.021,219.885-0.088,329.827c-0.005,3.817,0.889,5.952,4.69,7.082c4.122,1.225,8.064,3.048,12.086,4.61
		C617.586,387.632,617.49,388.125,617.395,388.617z M560.24,305.885c0.521-63.463,1.037-126.587,1.554-189.711
		c-0.286-0.013-0.573-0.026-0.86-0.04c-14.654,61.373-29.312,122.746-44.043,184.433
		C531.551,302.364,545.623,304.092,560.24,305.885z"/>
	<path fill="#FFFFFF" d="M499.611,218.623c1.483,0.927,2.502,1.578,3.535,2.204c6.488,3.927,10.995,10.625,8.937,21.562
		c-3.137,16.662-6.518,33.278-9.804,49.912c-0.213,1.079-0.513,2.143-0.877,3.651c-11.269-2.224-22.327-4.407-33.709-6.654
		c1.963-9.927,3.929-19.548,5.754-29.196c1.734-9.175,3.379-18.367,4.946-27.572c0.583-3.421-0.993-6.098-3.688-8.082
		c-3.544-2.607-6.846-1.304-7.701,3.048c-3.27,16.635-6.492,33.279-9.746,49.917c-0.448,2.293-0.965,4.573-1.537,7.267
		c-11.384-2.223-22.453-4.382-33.78-6.593c9.061-46.565,18.055-92.784,27.138-139.465c5.876,1.131,11.479,2.118,17.046,3.298
		c12.66,2.681,25.369,5.176,37.931,8.269c13.526,3.331,22.396,17.26,19.684,33.825c-1.087,6.638-2.89,13.161-3.895,19.808
		c-1.013,6.689-8.246,13.374-13.951,13.835C503.968,217.812,502.065,218.236,499.611,218.623z M489.796,176.983
		c-0.03-3.789-2.101-6.162-5.109-7.802c-3.898-2.125-6.271-0.935-7.088,3.336c-1.398,7.329-2.806,14.656-4.236,21.979
		c-0.75,3.827,0.712,7.271,3.496,8.079c3.264,0.946,8.076-1.552,8.889-5.104C487.295,190.688,488.467,183.817,489.796,176.983z"/>
	<path fill="#FFFFFF" d="M157.48,309.202c7.879-4.083,10.939-9.646,10.158-18.253c-0.873-9.625-0.199-19.391-0.199-29.094
		c0.415-0.049,0.831-0.097,1.247-0.145c5.726,29.25,11.45,58.5,17.176,87.75c-0.245,0.1-0.491,0.198-0.737,0.297
		c-0.748-1.706-1.588-3.38-2.23-5.126c-2.618-7.118-4.846-14.403-7.85-21.354c-3.008-6.963-8.859-10.457-16.963-11.24
		c5.818,27.771,11.573,55.236,17.35,82.807c4.624-0.309,7.889-1.66,10.875-5.486c9.351-11.986,10.982-25.459,9.953-39.98
		c-0.651-9.184-0.122-18.449-0.122-27.713c4.715,23.074,9.44,46.197,14.267,69.818c-21.707,4.684-42.95,9.267-64.473,13.909
		c0.27-0.664,0.293-0.968,0.449-1.069c6.436-4.273,6.346-4.252,4.664-12.24c-10.905-51.826-21.809-103.654-32.554-155.515
		c-0.731-3.527-2.263-5.167-5.652-5.513c-1.073-0.109-2.118-0.519-3.19-1.453c21.665-3.731,43.33-7.464,65.507-11.283
		c4.329,21.526,8.632,42.92,13.085,65.065c-4.502-10.954-8.506-21.25-12.977-31.341c-2.261-5.102-5.094-10.01-8.189-14.657
		c-1.818-2.729-4.434-5.076-7.087-7.067c-5.77-4.327-12.208-4.399-19.397-1.787C146.183,255.243,151.807,282.104,157.48,309.202z"/>
	<path fill="#FFFFFF" d="M480.483,328.501c0.557,8.089,1.067,15.522,1.588,23.069c-39.675,3.097-78.973,6.164-118.739,9.269
		c-0.318-4.221-0.621-8.243-0.946-12.555c5.913-0.556,11.568-1.086,17.466-1.64c-0.639-9.682-1.248-18.959-1.876-28.476
		c-5.122,0.255-9.808,0.489-14.919,0.745c0-4.382,0-8.323,0-12.797c37.982-2,76.229-4.012,114.963-6.051
		c0.395,7.007,0.775,13.791,1.188,21.131c-8.354,0.464-16.369,0.908-24.623,1.365c-0.281-2.777-0.539-5.336-0.845-8.359
		c-13.511,0.701-26.795,1.393-40.464,2.102c0.207,2.816,0.385,5.252,0.6,8.18c8.043-0.616,15.939-1.225,24.252-1.861
		c0.291,3.725,0.568,7.254,0.873,11.141c-8.117,0.705-16.045,1.396-24.462,2.127c0.174,2.623,0.335,5.032,0.532,8.01
		c13.934-1.111,27.551-2.197,41.461-3.31c-0.248-3.536-0.474-6.727-0.729-10.344C464.051,329.663,472.072,329.096,480.483,328.501z"
		/>
</g>
</svg>
