<?xml version="1.0" encoding="utf-8"?>
<!-- Generator: Adobe Illustrator 16.0.0, SVG Export Plug-In . SVG Version: 6.00 Build 0)  -->
<!DOCTYPE svg PUBLIC "-//W3C//DTD SVG 1.1//EN" "http://www.w3.org/Graphics/SVG/1.1/DTD/svg11.dtd">
<svg version="1.1" id="Layer_1" xmlns="http://www.w3.org/2000/svg" xmlns:xlink="http://www.w3.org/1999/xlink" x="0px" y="0px"
	 width="324.114px" height="40.352px" viewBox="114.943 266.824 324.114 40.352"
	 enable-background="new 114.943 266.824 324.114 40.352" xml:space="preserve">
<g>
	<path fill="#FFFFFF" d="M315.174,299.074c1.629,1.287,3.141,2.484,4.741,3.75c-1.143,1.472-2.195,2.825-3.38,4.352
		c-1.601-1.184-3.133-2.315-4.74-3.504c-3.594,2.843-7.697,3.813-12.143,3.058c-6.247-1.062-10.438-4.654-11.063-10.923
		c-0.614-6.165-0.581-12.525,0.216-18.666c0.865-6.67,6.842-10.541,14.078-10.307c6.762,0.221,11.885,4.531,13.033,10.971
		C316.776,282.627,316.383,294.268,315.174,299.074z M309.398,294.56c0-5.415,0.247-10.501-0.086-15.546
		c-0.227-3.441-3.418-5.705-7.015-5.746c-3.548-0.037-6.823,2.037-7.055,5.369c-0.382,5.49-0.548,11.075,0.036,16.529
		c0.51,4.749,6.464,6.818,10.827,4.088c-1.538-1.223-3.022-2.404-4.552-3.62c1.237-1.551,2.334-2.925,3.445-4.315
		C306.527,292.444,307.831,293.405,309.398,294.56z"/>
	<path fill="#FFFFFF" d="M114.943,302.092c1.193-1.797,2.262-3.408,3.463-5.216c3.033,2.322,6.381,3.808,10.131,3.797
		c2.103-0.005,4.267-0.388,6.289-0.986c1.965-0.581,2.971-2.284,2.947-4.328c-0.025-2.072-1.141-3.609-3.157-4.159
		c-2.765-0.753-5.579-1.342-8.389-1.92c-6.249-1.286-9.286-4.563-9.418-10.246c-0.137-5.887,3.091-10.073,8.978-11.539
		c6.318-1.572,12.08-0.179,17.628,3.443c-1.039,1.783-2.037,3.498-3.122,5.363c-3.595-2.529-7.508-3.935-11.79-2.975
		c-1.68,0.375-3.574,1.406-4.599,2.734c-1.678,2.172-0.453,5.26,2.335,6.26c2.621,0.941,5.395,1.457,8.102,2.16
		c0.833,0.217,1.681,0.391,2.496,0.662c4.864,1.619,7.201,4.646,7.354,9.48c0.165,5.221-2.169,9.255-6.806,10.892
		C129.444,308.319,121.989,307.174,114.943,302.092z"/>
	<path fill="#FFFFFF" d="M322.895,301.952c1.089-1.643,2.186-3.295,3.373-5.087c3.117,2.424,6.505,3.818,10.25,3.821
		c2.1,0.001,4.262-0.44,6.279-1.058c1.873-0.571,2.842-2.226,2.844-4.181c0.002-2.072-1.061-3.646-3.087-4.206
		c-2.763-0.766-5.573-1.368-8.382-1.948c-6.406-1.322-9.435-4.603-9.502-10.394c-0.068-5.885,3.176-10.015,9.107-11.441
		c6.311-1.518,12.059-0.117,17.516,3.502c-1.09,1.838-2.109,3.557-3.174,5.354c-3.56-2.557-7.421-3.943-11.647-2.992
		c-1.737,0.393-3.698,1.465-4.749,2.844c-1.607,2.107-0.388,5.158,2.281,6.119c2.688,0.969,5.536,1.49,8.313,2.213
		c0.833,0.217,1.675,0.414,2.489,0.689c4.666,1.578,6.976,4.493,7.26,9.123c0.307,4.983-1.884,8.891-6.134,10.938
		C339.138,308.521,328.744,307.061,322.895,301.952z"/>
	<path fill="#FFFFFF" d="M417.547,267.303c6.855,0,13.527,0,20.34,0c0,1.989,0,3.9,0,6.078c-4.551,0-9.113,0-13.832,0
		c0,2.65,0,5.041,0,7.438c1.158-0.363,2.277-0.889,3.449-1.059c6.109-0.879,10.662,2.664,11.363,9.203
		c0.334,3.104,0.221,6.35-0.289,9.432c-0.881,5.344-4.576,8.247-10.076,8.527c-5.348,0.272-9.5-2.441-11.162-7.333
		c-0.344-1.009-0.564-2.06-0.895-3.289c2.238,0,4.273,0,5.754,0c1.461,1.544,2.453,3.343,3.953,4.02
		c3.021,1.363,5.975-0.671,6.33-4.091c0.207-1.992,0.213-4.041,0.006-6.032c-0.398-3.831-4.285-5.612-7.299-3.429
		c-0.844,0.611-1.49,1.808-2.375,1.98c-1.65,0.322-3.412,0.093-5.268,0.093C417.547,281.629,417.547,274.553,417.547,267.303z"/>
	<path fill="#FFFFFF" d="M215.151,303.31c-2.237,3.06-4.938,3.998-8.173,3.565c-3.933-0.525-7.017-3.09-7.501-7.472
		c-0.51-4.597-0.708-9.387,0.023-13.921c1.2-7.432,9.165-9.76,14.773-4.701c0.204,0.184,0.416,0.355,0.911,0.779
		c0-4.891,0-9.502,0-14.224c2.232,0,4.216,0,6.373,0c0,12.946,0,25.917,0,39.035c-2.004,0-4.048,0-6.226,0
		C215.281,305.53,215.232,304.693,215.151,303.31z M215.196,292.631c0-1.438,0.104-2.885-0.022-4.311
		c-0.235-2.631-1.794-4.121-4.269-4.27c-2.796-0.168-4.875,1.088-5.151,3.749c-0.323,3.111-0.333,6.308-0.014,9.42
		c0.281,2.734,2.15,3.835,5.128,3.715c2.479-0.102,4.044-1.564,4.303-4.207C215.302,295.374,215.193,293.997,215.196,292.631z"/>
	<path fill="#FFFFFF" d="M391.971,294.284c3.153,0,5.934,0,8.961,0c0-1.897,0-3.676,0-5.457c0-1.72,0-3.44,0-5.329
		c2.188,0,4.219,0,6.434,0c0,3.572,0,7.07,0,10.731c1.045,0.115,1.934,0.214,2.936,0.323c0,1.904,0,3.746,0,5.77
		c-0.873,0.102-1.76,0.203-2.826,0.327c0,1.892,0,3.733,0,5.729c-2.227,0-4.26,0-6.506,0c0-1.876,0-3.715,0-5.761
		c-5.492,0-10.779,0-16.749,0c0.396-2.751,0.251-5.436,1.194-7.656c3.456-8.122,7.303-16.075,10.93-24.126
		c0.559-1.236,1.234-1.734,2.59-1.637c1.641,0.117,3.295,0.028,5.324,0.028C400.115,276.35,396.078,285.238,391.971,294.284z"/>
	<path fill="#FFFFFF" d="M266.386,292.573c-0.175,1.922-0.185,3.875-0.556,5.759c-0.932,4.743-3.873,7.521-8.658,8.344
		c-6.373,1.098-13.971-1.191-14.41-10.576c-0.163-3.477-0.002-7.04,0.598-10.461c0.645-3.682,3.271-6.205,6.896-6.885
		c2.735-0.512,5.743-0.527,8.461,0.039c4.424,0.924,7.195,4.893,7.455,9.674c0.074,1.36,0.012,2.729,0.012,4.093
		C266.25,292.564,266.318,292.569,266.386,292.573z M259.743,292.54c-0.005,0-0.009,0-0.013,0c0-1.146,0.077-2.299-0.016-3.438
		c-0.229-2.855-2.06-4.6-4.863-4.738c-3.097-0.152-5.151,1.217-5.501,4.17c-0.3,2.535-0.304,5.152-0.047,7.694
		c0.315,3.114,2.453,4.675,5.491,4.473c3.006-0.201,4.782-2.032,4.942-5.151C259.786,294.549,259.743,293.543,259.743,292.54z"/>
	<path fill="#FFFFFF" d="M185.483,306.39c0-0.98,0-1.896,0-3.16c-0.516,0.444-0.816,0.661-1.066,0.924
		c-4.533,4.792-12.224,3.23-14.502-2.97c-0.37-1.004-0.787-2.07-0.799-3.11c-0.073-6.454-0.036-12.911-0.036-19.493
		c2.075,0,4.062,0,6.403,0c0,0.617,0,1.299,0,1.979c-0.004,4.961-0.035,9.924-0.001,14.885c0.022,3.433,1.933,5.355,5.133,5.286
		c3.214-0.069,4.813-1.799,4.825-5.306c0.021-5.588,0.005-11.176,0.005-16.867c2.186,0,4.17,0,6.304,0c0,9.248,0,18.476,0,27.834
		C189.693,306.39,187.65,306.39,185.483,306.39z"/>
	<path fill="#FFFFFF" d="M161.94,284c-1.22,0.064-2.341,0.123-3.724,0.197c0,4.931-0.111,9.796,0.049,14.652
		c0.076,2.301,2.261,1.368,3.674,1.793c0,1.891,0,3.796,0,6.031c-1.966-0.089-3.901,0.007-5.767-0.306
		c-2.69-0.451-4.362-2.834-4.417-6.1c-0.076-4.529-0.037-9.06-0.048-13.589c-0.002-0.773,0-1.547,0-2.445
		c-1.041-0.084-1.878-0.152-2.854-0.23c0-1.766,0-3.525,0-5.443c0.839-0.063,1.673-0.125,2.758-0.207c0-2.592,0-5.207,0-7.956
		c2.286,0,4.322,0,6.53,0c0,2.618,0,5.179,0,7.987c1.333,0,2.504,0,3.798,0C161.94,280.385,161.94,282.139,161.94,284z"/>
	<path fill="#FFFFFF" d="M235.736,306.416c-2.147,0-4.137,0-6.254,0c0-9.318,0-18.533,0-27.857c2.103,0,4.089,0,6.254,0
		C235.736,287.811,235.736,297.031,235.736,306.416z"/>
	<path fill="#FFFFFF" d="M358.787,295.465c0-2.038,0-3.952,0-6.031c6.197,0,12.329,0,18.621,0c0,1.924,0,3.892,0,6.031
		C371.28,295.465,365.158,295.465,358.787,295.465z"/>
	<path fill="#FFFFFF" d="M235.774,273.621c-2.134,0-4.115,0-6.259,0c0-2.102,0-4.124,0-6.275c2.067,0,4.096,0,6.259,0
		C235.774,269.43,235.774,271.402,235.774,273.621z"/>
</g>
</svg>
